<svg width="414" height="896" viewBox="0 0 414 896" fill="none" xmlns="http://www.w3.org/2000/svg">
<rect width="414" height="896" fill="#3E3E3F"/>
<ellipse cx="26.5" cy="840.5" rx="166.5" ry="171.5" fill="#0793FD"/>
<ellipse cx="404.5" cy="852.5" rx="328.5" ry="339.5" fill="#0570C1" fill-opacity="0.91"/>
<path d="M176.125 130.996C176.125 131.576 176.014 132.122 175.793 132.637C175.578 133.145 175.279 133.59 174.895 133.975C174.517 134.352 174.071 134.652 173.557 134.873C173.049 135.088 172.505 135.195 171.926 135.195C171.405 135.195 170.904 135.104 170.422 134.922C169.947 134.74 169.517 134.473 169.133 134.121C168.749 134.473 168.316 134.74 167.834 134.922C167.352 135.104 166.851 135.195 166.33 135.195C165.751 135.195 165.204 135.088 164.689 134.873C164.182 134.652 163.736 134.352 163.352 133.975C162.974 133.59 162.674 133.145 162.453 132.637C162.238 132.122 162.131 131.576 162.131 130.996V120.996H164.934V130.996C164.934 131.191 164.969 131.377 165.041 131.553C165.113 131.722 165.21 131.872 165.334 132.002C165.464 132.126 165.614 132.223 165.783 132.295C165.952 132.367 166.135 132.402 166.33 132.402C166.525 132.402 166.708 132.367 166.877 132.295C167.046 132.223 167.193 132.126 167.316 132.002C167.447 131.872 167.548 131.722 167.619 131.553C167.691 131.377 167.727 131.191 167.727 130.996V120.996H170.529V130.996C170.529 131.191 170.565 131.377 170.637 131.553C170.708 131.722 170.806 131.872 170.93 132.002C171.06 132.126 171.21 132.223 171.379 132.295C171.548 132.367 171.73 132.402 171.926 132.402C172.121 132.402 172.303 132.367 172.473 132.295C172.642 132.223 172.788 132.126 172.912 132.002C173.042 131.872 173.143 131.722 173.215 131.553C173.293 131.377 173.332 131.191 173.332 130.996V120.996H176.125V130.996ZM182.375 132.441C182.479 132.474 182.583 132.497 182.688 132.51C182.792 132.516 182.896 132.52 183 132.52C183.26 132.52 183.511 132.484 183.752 132.412C183.993 132.34 184.217 132.24 184.426 132.109C184.641 131.973 184.829 131.81 184.992 131.621C185.161 131.426 185.298 131.211 185.402 130.977L187.355 132.939C187.108 133.291 186.822 133.607 186.496 133.887C186.177 134.167 185.829 134.404 185.451 134.6C185.08 134.795 184.686 134.941 184.27 135.039C183.859 135.143 183.436 135.195 183 135.195C182.264 135.195 181.571 135.059 180.92 134.785C180.275 134.512 179.709 134.131 179.221 133.643C178.739 133.154 178.358 132.575 178.078 131.904C177.798 131.227 177.658 130.485 177.658 129.678C177.658 128.851 177.798 128.096 178.078 127.412C178.358 126.729 178.739 126.146 179.221 125.664C179.709 125.182 180.275 124.808 180.92 124.541C181.571 124.274 182.264 124.141 183 124.141C183.436 124.141 183.863 124.193 184.279 124.297C184.696 124.401 185.09 124.551 185.461 124.746C185.839 124.941 186.19 125.182 186.516 125.469C186.841 125.749 187.128 126.064 187.375 126.416L182.375 132.441ZM183.742 126.943C183.618 126.898 183.495 126.868 183.371 126.855C183.254 126.842 183.13 126.836 183 126.836C182.635 126.836 182.29 126.904 181.965 127.041C181.646 127.171 181.366 127.36 181.125 127.607C180.891 127.855 180.705 128.154 180.568 128.506C180.432 128.851 180.363 129.242 180.363 129.678C180.363 129.775 180.367 129.886 180.373 130.01C180.386 130.133 180.402 130.26 180.422 130.391C180.448 130.514 180.477 130.635 180.51 130.752C180.542 130.869 180.585 130.973 180.637 131.064L183.742 126.943ZM191.408 135H188.723V120.381H191.408V135ZM202.59 126.621L200.637 128.584C200.539 128.311 200.406 128.066 200.236 127.852C200.067 127.63 199.875 127.445 199.66 127.295C199.452 127.145 199.224 127.031 198.977 126.953C198.729 126.875 198.475 126.836 198.215 126.836C197.85 126.836 197.505 126.911 197.18 127.061C196.861 127.21 196.581 127.422 196.34 127.695C196.105 127.962 195.92 128.281 195.783 128.652C195.646 129.023 195.578 129.434 195.578 129.883C195.578 130.247 195.646 130.589 195.783 130.908C195.92 131.227 196.105 131.507 196.34 131.748C196.581 131.989 196.861 132.178 197.18 132.314C197.505 132.451 197.85 132.52 198.215 132.52C198.475 132.52 198.726 132.484 198.967 132.412C199.208 132.34 199.432 132.24 199.641 132.109C199.855 131.973 200.044 131.81 200.207 131.621C200.376 131.426 200.513 131.211 200.617 130.977L202.57 132.939C202.323 133.291 202.036 133.607 201.711 133.887C201.392 134.167 201.044 134.404 200.666 134.6C200.295 134.795 199.901 134.941 199.484 135.039C199.074 135.143 198.651 135.195 198.215 135.195C197.479 135.195 196.786 135.059 196.135 134.785C195.49 134.505 194.924 134.124 194.436 133.643C193.954 133.161 193.573 132.598 193.293 131.953C193.013 131.309 192.873 130.618 192.873 129.883C192.873 129.082 193.013 128.333 193.293 127.637C193.573 126.94 193.954 126.335 194.436 125.82C194.924 125.299 195.49 124.889 196.135 124.59C196.786 124.29 197.479 124.141 198.215 124.141C198.651 124.141 199.077 124.196 199.494 124.307C199.917 124.417 200.318 124.58 200.695 124.795C201.079 125.003 201.431 125.26 201.75 125.566C202.076 125.872 202.355 126.224 202.59 126.621ZM213.85 129.678C213.85 130.459 213.71 131.188 213.43 131.865C213.15 132.536 212.769 133.118 212.287 133.613C211.805 134.102 211.239 134.489 210.588 134.775C209.943 135.055 209.25 135.195 208.508 135.195C207.772 135.195 207.079 135.055 206.428 134.775C205.783 134.489 205.217 134.102 204.729 133.613C204.247 133.118 203.866 132.536 203.586 131.865C203.306 131.188 203.166 130.459 203.166 129.678C203.166 128.883 203.306 128.148 203.586 127.471C203.866 126.794 204.247 126.211 204.729 125.723C205.217 125.228 205.783 124.84 206.428 124.561C207.079 124.281 207.772 124.141 208.508 124.141C209.25 124.141 209.943 124.274 210.588 124.541C211.239 124.801 211.805 125.176 212.287 125.664C212.769 126.146 213.15 126.729 213.43 127.412C213.71 128.089 213.85 128.844 213.85 129.678ZM211.164 129.678C211.164 129.248 211.092 128.861 210.949 128.516C210.812 128.164 210.624 127.865 210.383 127.617C210.142 127.363 209.859 127.171 209.533 127.041C209.214 126.904 208.872 126.836 208.508 126.836C208.143 126.836 207.798 126.904 207.473 127.041C207.154 127.171 206.874 127.363 206.633 127.617C206.398 127.865 206.213 128.164 206.076 128.516C205.939 128.861 205.871 129.248 205.871 129.678C205.871 130.081 205.939 130.456 206.076 130.801C206.213 131.146 206.398 131.445 206.633 131.699C206.874 131.953 207.154 132.155 207.473 132.305C207.798 132.448 208.143 132.52 208.508 132.52C208.872 132.52 209.214 132.451 209.533 132.314C209.859 132.178 210.142 131.986 210.383 131.738C210.624 131.491 210.812 131.191 210.949 130.84C211.092 130.488 211.164 130.101 211.164 129.678ZM228.625 135H225.969V128.359C225.969 128.177 225.933 128.005 225.861 127.842C225.796 127.679 225.702 127.536 225.578 127.412C225.454 127.288 225.311 127.194 225.148 127.129C224.986 127.057 224.813 127.021 224.631 127.021C224.449 127.021 224.276 127.057 224.113 127.129C223.957 127.194 223.817 127.288 223.693 127.412C223.576 127.536 223.482 127.679 223.41 127.842C223.345 128.005 223.312 128.177 223.312 128.359V135H220.646V128.359C220.646 128.177 220.611 128.005 220.539 127.842C220.474 127.679 220.38 127.536 220.256 127.412C220.132 127.288 219.989 127.194 219.826 127.129C219.663 127.057 219.491 127.021 219.309 127.021C219.126 127.021 218.954 127.057 218.791 127.129C218.635 127.194 218.495 127.288 218.371 127.412C218.254 127.536 218.16 127.679 218.088 127.842C218.023 128.005 217.99 128.177 217.99 128.359V135H215.324V124.541H215.969L216.691 125.342C217.062 125.029 217.469 124.788 217.912 124.619C218.361 124.443 218.827 124.355 219.309 124.355C219.797 124.355 220.272 124.447 220.734 124.629C221.203 124.811 221.613 125.127 221.965 125.576C222.128 125.355 222.313 125.166 222.521 125.01C222.73 124.854 222.948 124.727 223.176 124.629C223.41 124.531 223.651 124.463 223.898 124.424C224.146 124.378 224.39 124.355 224.631 124.355C225.184 124.355 225.702 124.46 226.184 124.668C226.672 124.876 227.095 125.163 227.453 125.527C227.818 125.885 228.104 126.309 228.312 126.797C228.521 127.285 228.625 127.806 228.625 128.359V135ZM234.738 132.441C234.842 132.474 234.947 132.497 235.051 132.51C235.155 132.516 235.259 132.52 235.363 132.52C235.624 132.52 235.874 132.484 236.115 132.412C236.356 132.34 236.581 132.24 236.789 132.109C237.004 131.973 237.193 131.81 237.355 131.621C237.525 131.426 237.661 131.211 237.766 130.977L239.719 132.939C239.471 133.291 239.185 133.607 238.859 133.887C238.54 134.167 238.192 134.404 237.814 134.6C237.443 134.795 237.049 134.941 236.633 135.039C236.223 135.143 235.799 135.195 235.363 135.195C234.628 135.195 233.934 135.059 233.283 134.785C232.639 134.512 232.072 134.131 231.584 133.643C231.102 133.154 230.721 132.575 230.441 131.904C230.161 131.227 230.021 130.485 230.021 129.678C230.021 128.851 230.161 128.096 230.441 127.412C230.721 126.729 231.102 126.146 231.584 125.664C232.072 125.182 232.639 124.808 233.283 124.541C233.934 124.274 234.628 124.141 235.363 124.141C235.799 124.141 236.226 124.193 236.643 124.297C237.059 124.401 237.453 124.551 237.824 124.746C238.202 124.941 238.553 125.182 238.879 125.469C239.204 125.749 239.491 126.064 239.738 126.416L234.738 132.441ZM236.105 126.943C235.982 126.898 235.858 126.868 235.734 126.855C235.617 126.842 235.493 126.836 235.363 126.836C234.999 126.836 234.654 126.904 234.328 127.041C234.009 127.171 233.729 127.36 233.488 127.607C233.254 127.855 233.068 128.154 232.932 128.506C232.795 128.851 232.727 129.242 232.727 129.678C232.727 129.775 232.73 129.886 232.736 130.01C232.749 130.133 232.766 130.26 232.785 130.391C232.811 130.514 232.84 130.635 232.873 130.752C232.906 130.869 232.948 130.973 233 131.064L236.105 126.943Z" fill="#FDFEFF"/>
<path d="M194.426 173H191.633V161.799H187.424V158.996H198.625V161.799H194.426V173ZM208.293 167.678C208.293 168.459 208.153 169.188 207.873 169.865C207.593 170.536 207.212 171.118 206.73 171.613C206.249 172.102 205.682 172.489 205.031 172.775C204.387 173.055 203.693 173.195 202.951 173.195C202.215 173.195 201.522 173.055 200.871 172.775C200.227 172.489 199.66 172.102 199.172 171.613C198.69 171.118 198.309 170.536 198.029 169.865C197.749 169.188 197.609 168.459 197.609 167.678C197.609 166.883 197.749 166.148 198.029 165.471C198.309 164.794 198.69 164.211 199.172 163.723C199.66 163.228 200.227 162.84 200.871 162.561C201.522 162.281 202.215 162.141 202.951 162.141C203.693 162.141 204.387 162.274 205.031 162.541C205.682 162.801 206.249 163.176 206.73 163.664C207.212 164.146 207.593 164.729 207.873 165.412C208.153 166.089 208.293 166.844 208.293 167.678ZM205.607 167.678C205.607 167.248 205.536 166.861 205.393 166.516C205.256 166.164 205.067 165.865 204.826 165.617C204.585 165.363 204.302 165.171 203.977 165.041C203.658 164.904 203.316 164.836 202.951 164.836C202.587 164.836 202.242 164.904 201.916 165.041C201.597 165.171 201.317 165.363 201.076 165.617C200.842 165.865 200.656 166.164 200.52 166.516C200.383 166.861 200.314 167.248 200.314 167.678C200.314 168.081 200.383 168.456 200.52 168.801C200.656 169.146 200.842 169.445 201.076 169.699C201.317 169.953 201.597 170.155 201.916 170.305C202.242 170.448 202.587 170.52 202.951 170.52C203.316 170.52 203.658 170.451 203.977 170.314C204.302 170.178 204.585 169.986 204.826 169.738C205.067 169.491 205.256 169.191 205.393 168.84C205.536 168.488 205.607 168.101 205.607 167.678Z" fill="#FDFEFF"/>
<path d="M102.668 221H92.8633V206.996H95.666V218.197H102.668V221ZM111.223 219.779C111.008 219.975 110.777 220.16 110.529 220.336C110.288 220.505 110.035 220.655 109.768 220.785C109.501 220.909 109.224 221.007 108.938 221.078C108.658 221.156 108.371 221.195 108.078 221.195C107.434 221.195 106.828 221.081 106.262 220.854C105.695 220.626 105.197 220.303 104.768 219.887C104.344 219.464 104.009 218.952 103.762 218.354C103.521 217.748 103.4 217.071 103.4 216.322V210.541H106.057V216.322C106.057 216.674 106.109 216.99 106.213 217.27C106.324 217.543 106.47 217.774 106.652 217.963C106.835 218.152 107.046 218.295 107.287 218.393C107.535 218.49 107.798 218.539 108.078 218.539C108.352 218.539 108.609 218.477 108.85 218.354C109.097 218.223 109.312 218.054 109.494 217.846C109.676 217.637 109.82 217.403 109.924 217.143C110.028 216.876 110.08 216.602 110.08 216.322V210.541H112.746V221H112.102L111.223 219.779ZM124.416 221H121.154L119.074 217.797L116.975 221H113.713L117.531 215.639L113.713 210.482H116.975L119.074 213.48L121.154 210.482H124.416L120.588 215.639L124.416 221ZM135.051 221H134.406L133.371 219.564C133.117 219.792 132.847 220.007 132.561 220.209C132.281 220.404 131.984 220.577 131.672 220.727C131.359 220.87 131.037 220.984 130.705 221.068C130.38 221.153 130.048 221.195 129.709 221.195C128.973 221.195 128.28 221.072 127.629 220.824C126.984 220.577 126.418 220.219 125.93 219.75C125.448 219.275 125.067 218.695 124.787 218.012C124.507 217.328 124.367 216.55 124.367 215.678C124.367 214.864 124.507 214.118 124.787 213.441C125.067 212.758 125.448 212.172 125.93 211.684C126.418 211.195 126.984 210.818 127.629 210.551C128.28 210.277 128.973 210.141 129.709 210.141C130.048 210.141 130.383 210.183 130.715 210.268C131.047 210.352 131.369 210.469 131.682 210.619C131.994 210.769 132.29 210.945 132.57 211.146C132.857 211.348 133.124 211.566 133.371 211.801L134.406 210.561H135.051V221ZM132.365 215.678C132.365 215.313 132.294 214.962 132.15 214.623C132.014 214.278 131.825 213.975 131.584 213.715C131.343 213.448 131.06 213.236 130.734 213.08C130.415 212.917 130.074 212.836 129.709 212.836C129.344 212.836 128.999 212.898 128.674 213.021C128.355 213.145 128.075 213.327 127.834 213.568C127.6 213.809 127.414 214.109 127.277 214.467C127.141 214.818 127.072 215.222 127.072 215.678C127.072 216.133 127.141 216.54 127.277 216.898C127.414 217.25 127.6 217.546 127.834 217.787C128.075 218.028 128.355 218.21 128.674 218.334C128.999 218.458 129.344 218.52 129.709 218.52C130.074 218.52 130.415 218.441 130.734 218.285C131.06 218.122 131.343 217.911 131.584 217.65C131.825 217.383 132.014 217.081 132.15 216.742C132.294 216.397 132.365 216.042 132.365 215.678ZM139.758 221H137.092V210.541H137.736L138.615 211.781C139.045 211.391 139.533 211.091 140.08 210.883C140.627 210.668 141.193 210.561 141.779 210.561H144.133V213.217H141.779C141.499 213.217 141.236 213.269 140.988 213.373C140.741 213.477 140.526 213.62 140.344 213.803C140.161 213.985 140.018 214.2 139.914 214.447C139.81 214.695 139.758 214.958 139.758 215.238V221ZM147.814 224.984V222.299L149.299 222.318C149.559 222.318 149.81 222.276 150.051 222.191C150.292 222.107 150.513 221.99 150.715 221.84C150.923 221.69 151.105 221.511 151.262 221.303C151.418 221.101 151.545 220.88 151.643 220.639C151.35 220.762 151.05 220.886 150.744 221.01C150.445 221.133 150.142 221.195 149.836 221.195C149.191 221.195 148.586 221.081 148.02 220.854C147.453 220.626 146.955 220.303 146.525 219.887C146.102 219.464 145.767 218.952 145.52 218.354C145.279 217.748 145.158 217.071 145.158 216.322V210.541H147.814V216.322C147.814 216.693 147.867 217.019 147.971 217.299C148.081 217.572 148.228 217.803 148.41 217.992C148.592 218.174 148.804 218.311 149.045 218.402C149.292 218.493 149.556 218.539 149.836 218.539C150.109 218.539 150.367 218.477 150.607 218.354C150.855 218.223 151.07 218.054 151.252 217.846C151.434 217.637 151.577 217.403 151.682 217.143C151.786 216.876 151.838 216.602 151.838 216.322V210.541H154.523V219.682C154.517 220.417 154.374 221.107 154.094 221.752C153.814 222.396 153.43 222.96 152.941 223.441C152.46 223.923 151.896 224.304 151.252 224.584C150.607 224.864 149.917 225.004 149.182 225.004L147.814 224.984ZM165.256 221H162.453V206.996H165.256V221ZM170.246 221H167.58V210.541H168.225L169.104 211.557C169.533 211.166 170.018 210.867 170.559 210.658C171.105 210.443 171.675 210.336 172.268 210.336C172.906 210.336 173.508 210.46 174.074 210.707C174.641 210.948 175.135 211.283 175.559 211.713C175.982 212.136 176.314 212.634 176.555 213.207C176.802 213.773 176.926 214.379 176.926 215.023V221H174.26V215.023C174.26 214.75 174.208 214.493 174.104 214.252C173.999 214.005 173.856 213.79 173.674 213.607C173.492 213.425 173.28 213.282 173.039 213.178C172.798 213.074 172.541 213.021 172.268 213.021C171.988 213.021 171.724 213.074 171.477 213.178C171.229 213.282 171.014 213.425 170.832 213.607C170.65 213.79 170.507 214.005 170.402 214.252C170.298 214.493 170.246 214.75 170.246 215.023V221ZM181.369 221L177.385 210.541H180.422L182.707 217.064L184.982 210.541H188.029L184.045 221H181.369ZM192.893 218.441C192.997 218.474 193.101 218.497 193.205 218.51C193.309 218.516 193.413 218.52 193.518 218.52C193.778 218.52 194.029 218.484 194.27 218.412C194.51 218.34 194.735 218.24 194.943 218.109C195.158 217.973 195.347 217.81 195.51 217.621C195.679 217.426 195.816 217.211 195.92 216.977L197.873 218.939C197.626 219.291 197.339 219.607 197.014 219.887C196.695 220.167 196.346 220.404 195.969 220.6C195.598 220.795 195.204 220.941 194.787 221.039C194.377 221.143 193.954 221.195 193.518 221.195C192.782 221.195 192.089 221.059 191.438 220.785C190.793 220.512 190.227 220.131 189.738 219.643C189.257 219.154 188.876 218.575 188.596 217.904C188.316 217.227 188.176 216.485 188.176 215.678C188.176 214.851 188.316 214.096 188.596 213.412C188.876 212.729 189.257 212.146 189.738 211.664C190.227 211.182 190.793 210.808 191.438 210.541C192.089 210.274 192.782 210.141 193.518 210.141C193.954 210.141 194.38 210.193 194.797 210.297C195.214 210.401 195.607 210.551 195.979 210.746C196.356 210.941 196.708 211.182 197.033 211.469C197.359 211.749 197.645 212.064 197.893 212.416L192.893 218.441ZM194.26 212.943C194.136 212.898 194.012 212.868 193.889 212.855C193.771 212.842 193.648 212.836 193.518 212.836C193.153 212.836 192.808 212.904 192.482 213.041C192.163 213.171 191.883 213.36 191.643 213.607C191.408 213.855 191.223 214.154 191.086 214.506C190.949 214.851 190.881 215.242 190.881 215.678C190.881 215.775 190.884 215.886 190.891 216.01C190.904 216.133 190.92 216.26 190.939 216.391C190.965 216.514 190.995 216.635 191.027 216.752C191.06 216.869 191.102 216.973 191.154 217.064L194.26 212.943ZM204.982 221H198.889V218.344H204.982C205.165 218.344 205.321 218.279 205.451 218.148C205.581 218.018 205.646 217.862 205.646 217.68C205.646 217.491 205.581 217.367 205.451 217.309C205.321 217.25 205.165 217.221 204.982 217.221H202.209C201.747 217.221 201.314 217.133 200.91 216.957C200.507 216.781 200.155 216.544 199.855 216.244C199.556 215.938 199.318 215.583 199.143 215.18C198.973 214.776 198.889 214.343 198.889 213.881C198.889 213.419 198.973 212.986 199.143 212.582C199.318 212.178 199.556 211.827 199.855 211.527C200.155 211.228 200.507 210.993 200.91 210.824C201.314 210.648 201.747 210.561 202.209 210.561H207.609V213.217H202.209C202.027 213.217 201.87 213.282 201.74 213.412C201.61 213.542 201.545 213.699 201.545 213.881C201.545 214.07 201.61 214.232 201.74 214.369C201.87 214.499 202.027 214.564 202.209 214.564H204.982C205.438 214.564 205.868 214.643 206.271 214.799C206.675 214.949 207.027 215.16 207.326 215.434C207.626 215.707 207.863 216.036 208.039 216.42C208.215 216.804 208.303 217.224 208.303 217.68C208.303 218.142 208.215 218.575 208.039 218.979C207.863 219.376 207.626 219.727 207.326 220.033C207.027 220.333 206.675 220.57 206.271 220.746C205.868 220.915 205.438 221 204.982 221ZM214.973 221C214.328 221 213.723 220.88 213.156 220.639C212.59 220.391 212.092 220.056 211.662 219.633C211.239 219.203 210.904 218.705 210.656 218.139C210.415 217.572 210.295 216.967 210.295 216.322V213.217H208.996V210.561H210.295V206.381H212.951V210.561H216.994V213.217H212.951V216.322C212.951 216.602 213.003 216.866 213.107 217.113C213.212 217.354 213.355 217.566 213.537 217.748C213.719 217.93 213.934 218.077 214.182 218.188C214.429 218.292 214.693 218.344 214.973 218.344H216.994V221H214.973ZM231.799 221H229.143V214.359C229.143 214.177 229.107 214.005 229.035 213.842C228.97 213.679 228.876 213.536 228.752 213.412C228.628 213.288 228.485 213.194 228.322 213.129C228.16 213.057 227.987 213.021 227.805 213.021C227.622 213.021 227.45 213.057 227.287 213.129C227.131 213.194 226.991 213.288 226.867 213.412C226.75 213.536 226.656 213.679 226.584 213.842C226.519 214.005 226.486 214.177 226.486 214.359V221H223.82V214.359C223.82 214.177 223.785 214.005 223.713 213.842C223.648 213.679 223.553 213.536 223.43 213.412C223.306 213.288 223.163 213.194 223 213.129C222.837 213.057 222.665 213.021 222.482 213.021C222.3 213.021 222.128 213.057 221.965 213.129C221.809 213.194 221.669 213.288 221.545 213.412C221.428 213.536 221.333 213.679 221.262 213.842C221.197 214.005 221.164 214.177 221.164 214.359V221H218.498V210.541H219.143L219.865 211.342C220.236 211.029 220.643 210.788 221.086 210.619C221.535 210.443 222.001 210.355 222.482 210.355C222.971 210.355 223.446 210.447 223.908 210.629C224.377 210.811 224.787 211.127 225.139 211.576C225.301 211.355 225.487 211.166 225.695 211.01C225.904 210.854 226.122 210.727 226.35 210.629C226.584 210.531 226.825 210.463 227.072 210.424C227.32 210.378 227.564 210.355 227.805 210.355C228.358 210.355 228.876 210.46 229.357 210.668C229.846 210.876 230.269 211.163 230.627 211.527C230.992 211.885 231.278 212.309 231.486 212.797C231.695 213.285 231.799 213.806 231.799 214.359V221ZM237.912 218.441C238.016 218.474 238.12 218.497 238.225 218.51C238.329 218.516 238.433 218.52 238.537 218.52C238.798 218.52 239.048 218.484 239.289 218.412C239.53 218.34 239.755 218.24 239.963 218.109C240.178 217.973 240.367 217.81 240.529 217.621C240.699 217.426 240.835 217.211 240.939 216.977L242.893 218.939C242.645 219.291 242.359 219.607 242.033 219.887C241.714 220.167 241.366 220.404 240.988 220.6C240.617 220.795 240.223 220.941 239.807 221.039C239.396 221.143 238.973 221.195 238.537 221.195C237.801 221.195 237.108 221.059 236.457 220.785C235.812 220.512 235.246 220.131 234.758 219.643C234.276 219.154 233.895 218.575 233.615 217.904C233.335 217.227 233.195 216.485 233.195 215.678C233.195 214.851 233.335 214.096 233.615 213.412C233.895 212.729 234.276 212.146 234.758 211.664C235.246 211.182 235.812 210.808 236.457 210.541C237.108 210.274 237.801 210.141 238.537 210.141C238.973 210.141 239.4 210.193 239.816 210.297C240.233 210.401 240.627 210.551 240.998 210.746C241.376 210.941 241.727 211.182 242.053 211.469C242.378 211.749 242.665 212.064 242.912 212.416L237.912 218.441ZM239.279 212.943C239.156 212.898 239.032 212.868 238.908 212.855C238.791 212.842 238.667 212.836 238.537 212.836C238.173 212.836 237.827 212.904 237.502 213.041C237.183 213.171 236.903 213.36 236.662 213.607C236.428 213.855 236.242 214.154 236.105 214.506C235.969 214.851 235.9 215.242 235.9 215.678C235.9 215.775 235.904 215.886 235.91 216.01C235.923 216.133 235.939 216.26 235.959 216.391C235.985 216.514 236.014 216.635 236.047 216.752C236.079 216.869 236.122 216.973 236.174 217.064L239.279 212.943ZM246.926 221H244.26V210.541H244.904L245.783 211.557C246.213 211.166 246.698 210.867 247.238 210.658C247.785 210.443 248.355 210.336 248.947 210.336C249.585 210.336 250.188 210.46 250.754 210.707C251.32 210.948 251.815 211.283 252.238 211.713C252.661 212.136 252.993 212.634 253.234 213.207C253.482 213.773 253.605 214.379 253.605 215.023V221H250.939V215.023C250.939 214.75 250.887 214.493 250.783 214.252C250.679 214.005 250.536 213.79 250.354 213.607C250.171 213.425 249.96 213.282 249.719 213.178C249.478 213.074 249.221 213.021 248.947 213.021C248.667 213.021 248.404 213.074 248.156 213.178C247.909 213.282 247.694 213.425 247.512 213.607C247.329 213.79 247.186 214.005 247.082 214.252C246.978 214.493 246.926 214.75 246.926 215.023V221ZM260.617 221C259.973 221 259.367 220.88 258.801 220.639C258.234 220.391 257.736 220.056 257.307 219.633C256.883 219.203 256.548 218.705 256.301 218.139C256.06 217.572 255.939 216.967 255.939 216.322V213.217H254.641V210.561H255.939V206.381H258.596V210.561H262.639V213.217H258.596V216.322C258.596 216.602 258.648 216.866 258.752 217.113C258.856 217.354 258.999 217.566 259.182 217.748C259.364 217.93 259.579 218.077 259.826 218.188C260.074 218.292 260.337 218.344 260.617 218.344H262.639V221H260.617ZM281.174 219.584C280.523 220.137 279.797 220.564 278.996 220.863C278.195 221.156 277.362 221.303 276.496 221.303C275.832 221.303 275.191 221.215 274.572 221.039C273.96 220.87 273.387 220.629 272.854 220.316C272.32 219.997 271.831 219.62 271.389 219.184C270.946 218.741 270.568 218.253 270.256 217.719C269.943 217.178 269.699 216.599 269.523 215.98C269.354 215.362 269.27 214.721 269.27 214.057C269.27 213.393 269.354 212.755 269.523 212.143C269.699 211.531 269.943 210.958 270.256 210.424C270.568 209.883 270.946 209.395 271.389 208.959C271.831 208.516 272.32 208.139 272.854 207.826C273.387 207.514 273.96 207.273 274.572 207.104C275.191 206.928 275.832 206.84 276.496 206.84C277.362 206.84 278.195 206.99 278.996 207.289C279.797 207.582 280.523 208.005 281.174 208.559L279.709 211C279.286 210.57 278.798 210.235 278.244 209.994C277.691 209.747 277.108 209.623 276.496 209.623C275.884 209.623 275.308 209.74 274.768 209.975C274.234 210.209 273.765 210.528 273.361 210.932C272.958 211.329 272.639 211.798 272.404 212.338C272.17 212.872 272.053 213.445 272.053 214.057C272.053 214.675 272.17 215.255 272.404 215.795C272.639 216.335 272.958 216.807 273.361 217.211C273.765 217.615 274.234 217.934 274.768 218.168C275.308 218.402 275.884 218.52 276.496 218.52C276.848 218.52 277.189 218.477 277.521 218.393C277.854 218.308 278.169 218.191 278.469 218.041V214.057H281.174V219.584ZM285.617 221H282.951V210.541H283.596L284.475 211.781C284.904 211.391 285.393 211.091 285.939 210.883C286.486 210.668 287.053 210.561 287.639 210.561H289.992V213.217H287.639C287.359 213.217 287.095 213.269 286.848 213.373C286.6 213.477 286.385 213.62 286.203 213.803C286.021 213.985 285.878 214.2 285.773 214.447C285.669 214.695 285.617 214.958 285.617 215.238V221ZM301.145 215.678C301.145 216.459 301.005 217.188 300.725 217.865C300.445 218.536 300.064 219.118 299.582 219.613C299.1 220.102 298.534 220.489 297.883 220.775C297.238 221.055 296.545 221.195 295.803 221.195C295.067 221.195 294.374 221.055 293.723 220.775C293.078 220.489 292.512 220.102 292.023 219.613C291.542 219.118 291.161 218.536 290.881 217.865C290.601 217.188 290.461 216.459 290.461 215.678C290.461 214.883 290.601 214.148 290.881 213.471C291.161 212.794 291.542 212.211 292.023 211.723C292.512 211.228 293.078 210.84 293.723 210.561C294.374 210.281 295.067 210.141 295.803 210.141C296.545 210.141 297.238 210.274 297.883 210.541C298.534 210.801 299.1 211.176 299.582 211.664C300.064 212.146 300.445 212.729 300.725 213.412C301.005 214.089 301.145 214.844 301.145 215.678ZM298.459 215.678C298.459 215.248 298.387 214.861 298.244 214.516C298.107 214.164 297.919 213.865 297.678 213.617C297.437 213.363 297.154 213.171 296.828 213.041C296.509 212.904 296.167 212.836 295.803 212.836C295.438 212.836 295.093 212.904 294.768 213.041C294.449 213.171 294.169 213.363 293.928 213.617C293.693 213.865 293.508 214.164 293.371 214.516C293.234 214.861 293.166 215.248 293.166 215.678C293.166 216.081 293.234 216.456 293.371 216.801C293.508 217.146 293.693 217.445 293.928 217.699C294.169 217.953 294.449 218.155 294.768 218.305C295.093 218.448 295.438 218.52 295.803 218.52C296.167 218.52 296.509 218.451 296.828 218.314C297.154 218.178 297.437 217.986 297.678 217.738C297.919 217.491 298.107 217.191 298.244 216.84C298.387 216.488 298.459 216.101 298.459 215.678ZM310.305 219.779C310.09 219.975 309.859 220.16 309.611 220.336C309.37 220.505 309.117 220.655 308.85 220.785C308.583 220.909 308.306 221.007 308.02 221.078C307.74 221.156 307.453 221.195 307.16 221.195C306.516 221.195 305.91 221.081 305.344 220.854C304.777 220.626 304.279 220.303 303.85 219.887C303.426 219.464 303.091 218.952 302.844 218.354C302.603 217.748 302.482 217.071 302.482 216.322V210.541H305.139V216.322C305.139 216.674 305.191 216.99 305.295 217.27C305.406 217.543 305.552 217.774 305.734 217.963C305.917 218.152 306.128 218.295 306.369 218.393C306.617 218.49 306.88 218.539 307.16 218.539C307.434 218.539 307.691 218.477 307.932 218.354C308.179 218.223 308.394 218.054 308.576 217.846C308.758 217.637 308.902 217.403 309.006 217.143C309.11 216.876 309.162 216.602 309.162 216.322V210.541H311.828V221H311.184L310.305 219.779ZM316.555 224.984H313.869V210.541H314.514L315.578 211.801C315.819 211.573 316.083 211.358 316.369 211.156C316.656 210.954 316.952 210.782 317.258 210.639C317.57 210.489 317.893 210.372 318.225 210.287C318.557 210.202 318.892 210.16 319.23 210.16C319.966 210.16 320.656 210.294 321.301 210.561C321.952 210.821 322.518 211.192 323 211.674C323.488 212.156 323.872 212.738 324.152 213.422C324.432 214.099 324.572 214.851 324.572 215.678C324.572 216.537 324.432 217.312 324.152 218.002C323.872 218.686 323.488 219.268 323 219.75C322.518 220.225 321.952 220.59 321.301 220.844C320.656 221.098 319.966 221.225 319.23 221.225C318.996 221.225 318.762 221.199 318.527 221.146C318.299 221.094 318.072 221.026 317.844 220.941C317.622 220.85 317.401 220.749 317.18 220.639C316.965 220.528 316.757 220.414 316.555 220.297V224.984ZM321.896 215.678C321.896 215.235 321.825 214.838 321.682 214.486C321.545 214.135 321.356 213.839 321.115 213.598C320.874 213.35 320.591 213.161 320.266 213.031C319.94 212.901 319.595 212.836 319.23 212.836C318.866 212.836 318.521 212.901 318.195 213.031C317.876 213.161 317.596 213.35 317.355 213.598C317.115 213.839 316.923 214.135 316.779 214.486C316.643 214.838 316.574 215.235 316.574 215.678C316.574 216.101 316.643 216.488 316.779 216.84C316.923 217.191 317.115 217.491 317.355 217.738C317.596 217.986 317.876 218.178 318.195 218.314C318.521 218.451 318.866 218.52 319.23 218.52C319.595 218.52 319.94 218.451 320.266 218.314C320.591 218.178 320.874 217.986 321.115 217.738C321.356 217.491 321.545 217.191 321.682 216.84C321.825 216.488 321.896 216.101 321.896 215.678Z" fill="#0793FD"/>
<rect x="166" y="391" width="20" height="79" rx="10" fill="#0570C1"/>
<rect x="228" y="391" width="20" height="79" rx="10" fill="#0570C1"/>
<rect x="198" y="401" width="20" height="80" rx="10" fill="#0570C1"/>
<rect x="180.644" y="465.089" width="26.5982" height="2" transform="rotate(22.6742 180.644 465.089)" fill="#0570C1"/>
<rect x="181.854" y="397.316" width="21.9706" height="2" transform="rotate(23.1016 181.854 397.316)" fill="#0570C1"/>
<path d="M205.383 408.969L238.907 394.045L239.72 395.872L222.959 403.334L206.197 410.796L205.383 408.969Z" fill="#0570C1"/>
<rect x="213.621" y="474.553" width="22" height="2" transform="rotate(-28.1153 213.621 474.553)" fill="#0570C1"/>
<rect x="178" y="461" width="60" height="2" fill="#0570C1"/>
<rect x="178" y="392" width="60" height="2" fill="#0570C1"/>
<path d="M172.121 489.08H176.164V490H170.99V481.469H172.121V489.08ZM180.934 489.373C180.512 489.869 179.893 490.117 179.076 490.117C178.4 490.117 177.885 489.922 177.529 489.531C177.178 489.137 177 488.555 176.996 487.785V483.66H178.08V487.756C178.08 488.717 178.471 489.197 179.252 489.197C180.08 489.197 180.631 488.889 180.904 488.272V483.66H181.988V490H180.957L180.934 489.373ZM185.768 485.975L187.174 483.66H188.439L186.365 486.795L188.504 490H187.25L185.785 487.627L184.32 490H183.061L185.199 486.795L183.125 483.66H184.379L185.768 485.975ZM193.508 490C193.445 489.875 193.395 489.652 193.355 489.332C192.852 489.855 192.25 490.117 191.551 490.117C190.926 490.117 190.412 489.941 190.01 489.59C189.611 489.234 189.412 488.785 189.412 488.242C189.412 487.582 189.662 487.07 190.162 486.707C190.666 486.34 191.373 486.156 192.283 486.156H193.338V485.658C193.338 485.279 193.225 484.979 192.998 484.756C192.771 484.529 192.438 484.416 191.996 484.416C191.609 484.416 191.285 484.514 191.023 484.709C190.762 484.904 190.631 485.141 190.631 485.418H189.541C189.541 485.102 189.652 484.797 189.875 484.504C190.102 484.207 190.406 483.973 190.789 483.801C191.176 483.629 191.6 483.543 192.061 483.543C192.791 483.543 193.363 483.727 193.777 484.094C194.191 484.457 194.406 484.959 194.422 485.6V488.518C194.422 489.1 194.496 489.563 194.645 489.906V490H193.508ZM191.709 489.174C192.049 489.174 192.371 489.086 192.676 488.91C192.98 488.734 193.201 488.506 193.338 488.225V486.924H192.488C191.16 486.924 190.496 487.313 190.496 488.09C190.496 488.43 190.609 488.695 190.836 488.887C191.062 489.078 191.354 489.174 191.709 489.174ZM199.186 484.633C199.021 484.605 198.844 484.592 198.652 484.592C197.941 484.592 197.459 484.895 197.205 485.5V490H196.121V483.66H197.176L197.193 484.393C197.549 483.826 198.053 483.543 198.705 483.543C198.916 483.543 199.076 483.57 199.186 483.625V484.633ZM202.367 488.412L203.844 483.66H205.004L202.455 490.979C202.061 492.033 201.434 492.561 200.574 492.561L200.369 492.543L199.965 492.467V491.588L200.258 491.611C200.625 491.611 200.91 491.537 201.113 491.389C201.32 491.24 201.49 490.969 201.623 490.574L201.863 489.93L199.602 483.66H200.785L202.367 488.412ZM172.197 504H171.072V495.469H172.197V504ZM175.115 497.66L175.15 498.457C175.635 497.848 176.268 497.543 177.049 497.543C178.389 497.543 179.064 498.299 179.076 499.811V504H177.992V499.805C177.988 499.348 177.883 499.01 177.676 498.791C177.473 498.572 177.154 498.463 176.721 498.463C176.369 498.463 176.061 498.557 175.795 498.744C175.529 498.932 175.322 499.178 175.174 499.482V504H174.09V497.66H175.115ZM182.803 502.529L184.373 497.66H185.48L183.207 504H182.381L180.084 497.66H181.191L182.803 502.529ZM189.072 504.117C188.213 504.117 187.514 503.836 186.975 503.273C186.436 502.707 186.166 501.951 186.166 501.006V500.807C186.166 500.178 186.285 499.617 186.523 499.125C186.766 498.629 187.102 498.242 187.531 497.965C187.965 497.684 188.434 497.543 188.938 497.543C189.762 497.543 190.402 497.814 190.859 498.357C191.316 498.9 191.545 499.678 191.545 500.689V501.141H187.25C187.266 501.766 187.447 502.272 187.795 502.658C188.146 503.041 188.592 503.232 189.131 503.232C189.514 503.232 189.838 503.154 190.104 502.998C190.369 502.842 190.602 502.635 190.801 502.377L191.463 502.893C190.932 503.709 190.135 504.117 189.072 504.117ZM188.938 498.434C188.5 498.434 188.133 498.594 187.836 498.914C187.539 499.23 187.355 499.676 187.285 500.25H190.461V500.168C190.43 499.617 190.281 499.191 190.016 498.891C189.75 498.586 189.391 498.434 188.938 498.434ZM196.496 502.318C196.496 502.025 196.385 501.799 196.162 501.639C195.943 501.475 195.559 501.334 195.008 501.217C194.461 501.1 194.025 500.959 193.701 500.795C193.381 500.631 193.143 500.436 192.986 500.209C192.834 499.982 192.758 499.713 192.758 499.4C192.758 498.881 192.977 498.441 193.414 498.082C193.855 497.723 194.418 497.543 195.102 497.543C195.82 497.543 196.402 497.729 196.848 498.1C197.297 498.471 197.521 498.945 197.521 499.523H196.432C196.432 499.227 196.305 498.971 196.051 498.756C195.801 498.541 195.484 498.434 195.102 498.434C194.707 498.434 194.398 498.52 194.176 498.691C193.953 498.863 193.842 499.088 193.842 499.365C193.842 499.627 193.945 499.824 194.152 499.957C194.359 500.09 194.732 500.217 195.271 500.338C195.814 500.459 196.254 500.604 196.59 500.772C196.926 500.939 197.174 501.143 197.334 501.381C197.498 501.615 197.58 501.902 197.58 502.242C197.58 502.809 197.354 503.264 196.9 503.607C196.447 503.947 195.859 504.117 195.137 504.117C194.629 504.117 194.18 504.027 193.789 503.848C193.398 503.668 193.092 503.418 192.869 503.098C192.65 502.773 192.541 502.424 192.541 502.049H193.625C193.645 502.412 193.789 502.701 194.059 502.916C194.332 503.127 194.691 503.232 195.137 503.232C195.547 503.232 195.875 503.15 196.121 502.986C196.371 502.818 196.496 502.596 196.496 502.318ZM200.463 496.125V497.66H201.646V498.498H200.463V502.43C200.463 502.684 200.516 502.875 200.621 503.004C200.727 503.129 200.906 503.191 201.16 503.191C201.285 503.191 201.457 503.168 201.676 503.121V504C201.391 504.078 201.113 504.117 200.844 504.117C200.359 504.117 199.994 503.971 199.748 503.678C199.502 503.385 199.379 502.969 199.379 502.43V498.498H198.225V497.66H199.379V496.125H200.463ZM204.096 504H203.012V497.66H204.096V504ZM202.924 495.979C202.924 495.803 202.977 495.654 203.082 495.533C203.191 495.412 203.352 495.352 203.562 495.352C203.773 495.352 203.934 495.412 204.043 495.533C204.152 495.654 204.207 495.803 204.207 495.979C204.207 496.154 204.152 496.301 204.043 496.418C203.934 496.535 203.773 496.594 203.562 496.594C203.352 496.594 203.191 496.535 203.082 496.418C202.977 496.301 202.924 496.154 202.924 495.979ZM206.855 497.66L206.885 498.363C207.35 497.816 207.977 497.543 208.766 497.543C209.652 497.543 210.256 497.883 210.576 498.563C210.787 498.258 211.061 498.012 211.396 497.824C211.736 497.637 212.137 497.543 212.598 497.543C213.988 497.543 214.695 498.279 214.719 499.752V504H213.635V499.816C213.635 499.363 213.531 499.025 213.324 498.803C213.117 498.576 212.77 498.463 212.281 498.463C211.879 498.463 211.545 498.584 211.279 498.826C211.014 499.064 210.859 499.387 210.816 499.793V504H209.727V499.846C209.727 498.924 209.275 498.463 208.373 498.463C207.662 498.463 207.176 498.766 206.914 499.371V504H205.83V497.66H206.855ZM218.99 504.117C218.131 504.117 217.432 503.836 216.893 503.273C216.354 502.707 216.084 501.951 216.084 501.006V500.807C216.084 500.178 216.203 499.617 216.441 499.125C216.684 498.629 217.02 498.242 217.449 497.965C217.883 497.684 218.352 497.543 218.855 497.543C219.68 497.543 220.32 497.814 220.777 498.357C221.234 498.9 221.463 499.678 221.463 500.689V501.141H217.168C217.184 501.766 217.365 502.272 217.713 502.658C218.064 503.041 218.51 503.232 219.049 503.232C219.432 503.232 219.756 503.154 220.021 502.998C220.287 502.842 220.52 502.635 220.719 502.377L221.381 502.893C220.85 503.709 220.053 504.117 218.99 504.117ZM218.855 498.434C218.418 498.434 218.051 498.594 217.754 498.914C217.457 499.23 217.273 499.676 217.203 500.25H220.379V500.168C220.348 499.617 220.199 499.191 219.934 498.891C219.668 498.586 219.309 498.434 218.855 498.434ZM223.748 497.66L223.783 498.457C224.268 497.848 224.9 497.543 225.682 497.543C227.021 497.543 227.697 498.299 227.709 499.811V504H226.625V499.805C226.621 499.348 226.516 499.01 226.309 498.791C226.105 498.572 225.787 498.463 225.354 498.463C225.002 498.463 224.693 498.557 224.428 498.744C224.162 498.932 223.955 499.178 223.807 499.482V504H222.723V497.66H223.748ZM230.814 496.125V497.66H231.998V498.498H230.814V502.43C230.814 502.684 230.867 502.875 230.973 503.004C231.078 503.129 231.258 503.191 231.512 503.191C231.637 503.191 231.809 503.168 232.027 503.121V504C231.742 504.078 231.465 504.117 231.195 504.117C230.711 504.117 230.346 503.971 230.1 503.678C229.854 503.385 229.73 502.969 229.73 502.43V498.498H228.576V497.66H229.73V496.125H230.814ZM177.289 516.881C177 517.295 176.596 517.605 176.076 517.813C175.561 518.016 174.959 518.117 174.271 518.117C173.576 518.117 172.959 517.955 172.42 517.631C171.881 517.303 171.463 516.838 171.166 516.236C170.873 515.635 170.723 514.938 170.715 514.145V513.4C170.715 512.115 171.014 511.119 171.611 510.412C172.213 509.705 173.057 509.352 174.143 509.352C175.033 509.352 175.75 509.58 176.293 510.037C176.836 510.49 177.168 511.135 177.289 511.971H176.164C175.953 510.842 175.281 510.277 174.148 510.277C173.395 510.277 172.822 510.543 172.432 511.074C172.045 511.602 171.85 512.367 171.846 513.371V514.068C171.846 515.025 172.064 515.787 172.502 516.354C172.939 516.916 173.531 517.197 174.277 517.197C174.699 517.197 175.068 517.15 175.385 517.057C175.701 516.963 175.963 516.805 176.17 516.582V514.666H174.195V513.752H177.289V516.881ZM182.064 512.633C181.9 512.605 181.723 512.592 181.531 512.592C180.82 512.592 180.338 512.895 180.084 513.5V518H179V511.66H180.055L180.072 512.393C180.428 511.826 180.932 511.543 181.584 511.543C181.795 511.543 181.955 511.57 182.064 511.625V512.633ZM182.662 514.772C182.662 514.15 182.783 513.592 183.025 513.096C183.271 512.6 183.611 512.217 184.045 511.947C184.482 511.678 184.98 511.543 185.539 511.543C186.402 511.543 187.1 511.842 187.631 512.439C188.166 513.037 188.434 513.832 188.434 514.824V514.9C188.434 515.518 188.314 516.072 188.076 516.564C187.842 517.053 187.504 517.434 187.062 517.707C186.625 517.98 186.121 518.117 185.551 518.117C184.691 518.117 183.994 517.818 183.459 517.221C182.928 516.623 182.662 515.832 182.662 514.848V514.772ZM183.752 514.9C183.752 515.604 183.914 516.168 184.238 516.594C184.566 517.02 185.004 517.232 185.551 517.232C186.102 517.232 186.539 517.018 186.863 516.588C187.188 516.154 187.35 515.549 187.35 514.772C187.35 514.076 187.184 513.514 186.852 513.084C186.523 512.65 186.086 512.434 185.539 512.434C185.004 512.434 184.572 512.647 184.244 513.072C183.916 513.498 183.752 514.107 183.752 514.9ZM193.707 517.373C193.285 517.869 192.666 518.117 191.85 518.117C191.174 518.117 190.658 517.922 190.303 517.531C189.951 517.137 189.773 516.555 189.77 515.785V511.66H190.854V515.756C190.854 516.717 191.244 517.197 192.025 517.197C192.854 517.197 193.404 516.889 193.678 516.272V511.66H194.762V518H193.73L193.707 517.373ZM201.77 514.9C201.77 515.865 201.549 516.643 201.107 517.232C200.666 517.822 200.068 518.117 199.314 518.117C198.545 518.117 197.939 517.873 197.498 517.385V520.438H196.414V511.66H197.404L197.457 512.363C197.898 511.816 198.512 511.543 199.297 511.543C200.059 511.543 200.66 511.83 201.102 512.404C201.547 512.979 201.77 513.777 201.77 514.801V514.9ZM200.686 514.777C200.686 514.063 200.533 513.498 200.229 513.084C199.924 512.67 199.506 512.463 198.975 512.463C198.318 512.463 197.826 512.754 197.498 513.336V516.365C197.822 516.943 198.318 517.232 198.986 517.232C199.506 517.232 199.918 517.027 200.223 516.617C200.531 516.203 200.686 515.59 200.686 514.777Z" fill="#FDFEFF"/>
</svg>
